<svg xmlns="http://www.w3.org/2000/svg" width="256" height="256" viewBox="0 0 256 256">
  <g id="accessory-none"/>
  <g id="accessory-glasses">
    <circle cx="99" cy="128" r="20" fill="none" stroke="var(--brick-stroke, #27303a)" stroke-width="6"/><circle cx="157" cy="128" r="20" fill="none" stroke="var(--brick-stroke, #27303a)" stroke-width="6"/>
    <path d="M119 128H137M79 126L53 115M177 126L205 114" stroke="var(--brick-stroke, #27303a)" stroke-width="6" stroke-linecap="round"/>
  </g>
  <g id="accessory-headset">
    <path d="M66 134C65 86 191 86 190 134" fill="none" stroke="var(--brick-stroke, #27303a)" stroke-width="8" stroke-linecap="round"/>
    <rect x="47" y="127" width="24" height="39" rx="10" fill="#2f3844" stroke="var(--brick-stroke, #27303a)" stroke-width="5"/>
    <rect x="185" y="127" width="24" height="39" rx="10" fill="#2f3844" stroke="var(--brick-stroke, #27303a)" stroke-width="5"/>
    <path d="M197 163C197 186 152 190 144 173" fill="none" stroke="var(--brick-stroke, #27303a)" stroke-width="6" stroke-linecap="round"/><circle cx="142" cy="173" r="6" fill="#30d39b" stroke="var(--brick-stroke, #27303a)" stroke-width="4"/>
  </g>
  <g id="accessory-hard-hat">
    <path d="M73 80C85 40 171 40 183 80Z" fill="#ffc83d" stroke="var(--brick-stroke, #27303a)" stroke-width="7" stroke-linejoin="round"/>
    <path d="M128 44V81" stroke="#d39420" stroke-width="8" stroke-linecap="round"/><path d="M65 82H191" stroke="var(--brick-stroke, #27303a)" stroke-width="8" stroke-linecap="round"/>
  </g>
  <g id="accessory-wizard-hat">
    <path d="M73 80L134 8L176 88Z" fill="#6f56d9" stroke="var(--brick-stroke, #27303a)" stroke-width="7" stroke-linejoin="round"/>
    <path d="M101 67L157 79" stroke="#f6d85d" stroke-width="10" stroke-linecap="round"/>
    <path d="M64 89C103 102 155 104 193 90" fill="none" stroke="var(--brick-stroke, #27303a)" stroke-width="9" stroke-linecap="round"/>
  </g>
  <g id="accessory-bow-tie">
    <path d="M123 177L89 160V194Z" fill="#ef4f78" stroke="var(--brick-stroke, #27303a)" stroke-width="5" stroke-linejoin="round"/><path d="M133 177L167 160V194Z" fill="#ef4f78" stroke="var(--brick-stroke, #27303a)" stroke-width="5" stroke-linejoin="round"/>
    <rect x="119" y="168" width="18" height="18" rx="5" fill="#f7becd" stroke="var(--brick-stroke, #27303a)" stroke-width="5"/>
  </g>
  <g id="accessory-laptop-badge">
    <rect x="150" y="151" width="46" height="31" rx="5" fill="#d9e1ea" stroke="var(--brick-stroke, #27303a)" stroke-width="5"/><path d="M141 183H205" stroke="var(--brick-stroke, #27303a)" stroke-width="6" stroke-linecap="round"/><circle cx="173" cy="167" r="5" fill="#30d39b"/>
  </g>
  <g id="accessory-tool-belt">
    <path d="M60 162H201" stroke="#7a4b2a" stroke-width="13" stroke-linecap="round"/>
    <rect x="84" y="149" width="34" height="40" rx="7" fill="#b06a38" stroke="var(--brick-stroke, #27303a)" stroke-width="5"/><rect x="157" y="149" width="34" height="40" rx="7" fill="#b06a38" stroke="var(--brick-stroke, #27303a)" stroke-width="5"/>
  </g>
</svg>
